<svg width="94" height="24" viewBox="0 0 94 24" fill="none" xmlns="http://www.w3.org/2000/svg">
<path d="M33.1504 12.8672L31.7793 14.3438V18H29.1426V5.20312H31.7793V11.0039L32.9395 9.41309L36.2002 5.20312H39.4434L34.8994 10.8896L39.5752 18H36.4375L33.1504 12.8672ZM44.5498 18.1758C43.1553 18.1758 42.0186 17.748 41.1396 16.8926C40.2666 16.0371 39.8301 14.8975 39.8301 13.4736V13.2275C39.8301 12.2725 40.0146 11.4199 40.3838 10.6699C40.7529 9.91406 41.2744 9.33398 41.9482 8.92969C42.6279 8.51953 43.4014 8.31445 44.2686 8.31445C45.5693 8.31445 46.5918 8.72461 47.3359 9.54492C48.0859 10.3652 48.4609 11.5283 48.4609 13.0342V14.0713H42.4053C42.4873 14.6924 42.7334 15.1904 43.1436 15.5654C43.5596 15.9404 44.084 16.1279 44.7168 16.1279C45.6953 16.1279 46.46 15.7734 47.0107 15.0645L48.2588 16.4619C47.8779 17.001 47.3623 17.4229 46.7119 17.7275C46.0615 18.0264 45.3408 18.1758 44.5498 18.1758ZM44.2598 10.3711C43.7559 10.3711 43.3457 10.541 43.0293 10.8809C42.7188 11.2207 42.5195 11.707 42.4316 12.3398H45.9648V12.1377C45.9531 11.5752 45.8008 11.1416 45.5078 10.8369C45.2148 10.5264 44.7988 10.3711 44.2598 10.3711ZM52.293 8.49023L52.3721 9.55371C53.0459 8.72754 53.957 8.31445 55.1055 8.31445C56.3301 8.31445 57.1709 8.79785 57.6279 9.76465C58.2959 8.79785 59.248 8.31445 60.4844 8.31445C61.5156 8.31445 62.2832 8.61621 62.7871 9.21973C63.291 9.81738 63.543 10.7197 63.543 11.9268V18H60.9941V11.9355C60.9941 11.3965 60.8887 11.0039 60.6777 10.7578C60.4668 10.5059 60.0947 10.3799 59.5615 10.3799C58.7998 10.3799 58.2725 10.7432 57.9795 11.4697L57.9883 18H55.4482V11.9443C55.4482 11.3936 55.3398 10.9951 55.123 10.749C54.9062 10.5029 54.5371 10.3799 54.0156 10.3799C53.2949 10.3799 52.7734 10.6787 52.4512 11.2764V18H49.9111V8.49023H52.293ZM74.0723 13.333C74.0723 14.8564 73.7471 16.0459 73.0967 16.9014C72.4463 17.751 71.5381 18.1758 70.3721 18.1758C69.3408 18.1758 68.5176 17.7803 67.9023 16.9893L67.7881 18H65.5029V4.5H68.043V9.34277C68.6289 8.65723 69.3994 8.31445 70.3545 8.31445C71.5146 8.31445 72.4229 8.74219 73.0791 9.59766C73.7412 10.4473 74.0723 11.6455 74.0723 13.1924V13.333ZM71.5322 13.1484C71.5322 12.1875 71.3799 11.4873 71.0752 11.0479C70.7705 10.6025 70.3164 10.3799 69.7129 10.3799C68.9043 10.3799 68.3477 10.7109 68.043 11.373V15.126C68.3535 15.7939 68.916 16.1279 69.7305 16.1279C70.5508 16.1279 71.0898 15.7236 71.3477 14.915C71.4707 14.5283 71.5322 13.9395 71.5322 13.1484ZM81.1562 18C81.0391 17.7715 80.9541 17.4873 80.9014 17.1475C80.2861 17.833 79.4863 18.1758 78.502 18.1758C77.5703 18.1758 76.7969 17.9062 76.1816 17.3672C75.5723 16.8281 75.2676 16.1484 75.2676 15.3281C75.2676 14.3203 75.6396 13.5469 76.3838 13.0078C77.1338 12.4688 78.2148 12.1963 79.627 12.1904H80.7959V11.6455C80.7959 11.2061 80.6816 10.8545 80.4531 10.5908C80.2305 10.3271 79.876 10.1953 79.3896 10.1953C78.9619 10.1953 78.625 10.2979 78.3789 10.5029C78.1387 10.708 78.0186 10.9893 78.0186 11.3467H75.4785C75.4785 10.7959 75.6484 10.2861 75.9883 9.81738C76.3281 9.34863 76.8086 8.98242 77.4297 8.71875C78.0508 8.44922 78.748 8.31445 79.5215 8.31445C80.6934 8.31445 81.6221 8.61035 82.3076 9.20215C82.999 9.78809 83.3447 10.6143 83.3447 11.6807V15.8027C83.3506 16.7051 83.4766 17.3877 83.7227 17.8506V18H81.1562ZM79.0557 16.2334C79.4307 16.2334 79.7764 16.1514 80.0928 15.9873C80.4092 15.8174 80.6436 15.5918 80.7959 15.3105V13.6758H79.8467C78.5752 13.6758 77.8984 14.1152 77.8164 14.9941L77.8076 15.1436C77.8076 15.46 77.9189 15.7207 78.1416 15.9258C78.3643 16.1309 78.6689 16.2334 79.0557 16.2334ZM87.9766 18H85.4277V4.5H87.9766V18ZM92.7578 18H90.209V8.49023H92.7578V18ZM90.0596 6.0293C90.0596 5.64844 90.1855 5.33496 90.4375 5.08887C90.6953 4.84277 91.0439 4.71973 91.4834 4.71973C91.917 4.71973 92.2627 4.84277 92.5205 5.08887C92.7783 5.33496 92.9072 5.64844 92.9072 6.0293C92.9072 6.41602 92.7754 6.73242 92.5117 6.97852C92.2539 7.22461 91.9111 7.34766 91.4834 7.34766C91.0557 7.34766 90.71 7.22461 90.4463 6.97852C90.1885 6.73242 90.0596 6.41602 90.0596 6.0293Z" fill="#090909"/>
<path d="M10.88 2.88002C10.4 2.40002 9.60005 2.40002 9.12005 2.88002L0.710047 11.29C0.617343 11.3825 0.543795 11.4924 0.493614 11.6134C0.443433 11.7344 0.417603 11.8641 0.417603 11.995C0.417603 12.126 0.443433 12.2557 0.493614 12.3766C0.543795 12.4976 0.617343 12.6075 0.710047 12.7L9.12005 21.11C9.61005 21.6 10.4 21.6 10.89 21.11C11.38 20.62 11.38 19.83 10.89 19.34L3.54005 12L10.89 4.65002C11.37 4.16002 11.37 3.37002 10.88 2.88002Z" fill="#090909"/>
</svg>
