<svg width="32" height="32" viewBox="0 0 32 32" fill="none" xmlns="http://www.w3.org/2000/svg">
<path d="M5.33333 17.3335C6.06667 17.3335 6.66667 16.7335 6.66667 16.0002C6.66667 15.2668 6.06667 14.6668 5.33333 14.6668C4.6 14.6668 4 15.2668 4 16.0002C4 16.7335 4.6 17.3335 5.33333 17.3335ZM5.33333 22.6668C6.06667 22.6668 6.66667 22.0668 6.66667 21.3335C6.66667 20.6002 6.06667 20.0002 5.33333 20.0002C4.6 20.0002 4 20.6002 4 21.3335C4 22.0668 4.6 22.6668 5.33333 22.6668ZM5.33333 12.0002C6.06667 12.0002 6.66667 11.4002 6.66667 10.6668C6.66667 9.9335 6.06667 9.3335 5.33333 9.3335C4.6 9.3335 4 9.9335 4 10.6668C4 11.4002 4.6 12.0002 5.33333 12.0002ZM10.6667 17.3335H26.6667C27.4 17.3335 28 16.7335 28 16.0002C28 15.2668 27.4 14.6668 26.6667 14.6668H10.6667C9.93333 14.6668 9.33333 15.2668 9.33333 16.0002C9.33333 16.7335 9.93333 17.3335 10.6667 17.3335ZM10.6667 22.6668H26.6667C27.4 22.6668 28 22.0668 28 21.3335C28 20.6002 27.4 20.0002 26.6667 20.0002H10.6667C9.93333 20.0002 9.33333 20.6002 9.33333 21.3335C9.33333 22.0668 9.93333 22.6668 10.6667 22.6668ZM9.33333 10.6668C9.33333 11.4002 9.93333 12.0002 10.6667 12.0002H26.6667C27.4 12.0002 28 11.4002 28 10.6668C28 9.9335 27.4 9.3335 26.6667 9.3335H10.6667C9.93333 9.3335 9.33333 9.9335 9.33333 10.6668ZM5.33333 17.3335C6.06667 17.3335 6.66667 16.7335 6.66667 16.0002C6.66667 15.2668 6.06667 14.6668 5.33333 14.6668C4.6 14.6668 4 15.2668 4 16.0002C4 16.7335 4.6 17.3335 5.33333 17.3335ZM5.33333 22.6668C6.06667 22.6668 6.66667 22.0668 6.66667 21.3335C6.66667 20.6002 6.06667 20.0002 5.33333 20.0002C4.6 20.0002 4 20.6002 4 21.3335C4 22.0668 4.6 22.6668 5.33333 22.6668ZM5.33333 12.0002C6.06667 12.0002 6.66667 11.4002 6.66667 10.6668C6.66667 9.9335 6.06667 9.3335 5.33333 9.3335C4.6 9.3335 4 9.9335 4 10.6668C4 11.4002 4.6 12.0002 5.33333 12.0002ZM10.6667 17.3335H26.6667C27.4 17.3335 28 16.7335 28 16.0002C28 15.2668 27.4 14.6668 26.6667 14.6668H10.6667C9.93333 14.6668 9.33333 15.2668 9.33333 16.0002C9.33333 16.7335 9.93333 17.3335 10.6667 17.3335ZM10.6667 22.6668H26.6667C27.4 22.6668 28 22.0668 28 21.3335C28 20.6002 27.4 20.0002 26.6667 20.0002H10.6667C9.93333 20.0002 9.33333 20.6002 9.33333 21.3335C9.33333 22.0668 9.93333 22.6668 10.6667 22.6668ZM9.33333 10.6668C9.33333 11.4002 9.93333 12.0002 10.6667 12.0002H26.6667C27.4 12.0002 28 11.4002 28 10.6668C28 9.9335 27.4 9.3335 26.6667 9.3335H10.6667C9.93333 9.3335 9.33333 9.9335 9.33333 10.6668Z" fill="#090909"/>
</svg>
