<svg width="80" height="89" viewBox="0 0 80 89" fill="none" xmlns="http://www.w3.org/2000/svg">
<path d="M5.87988 80.3154H3.7793V85H1.14258V72.2031H5.89746C7.40918 72.2031 8.5752 72.54 9.39551 73.2139C10.2158 73.8877 10.626 74.8398 10.626 76.0703C10.626 76.9434 10.4355 77.6729 10.0547 78.2588C9.67969 78.8389 9.1084 79.3018 8.34082 79.6475L11.1094 84.877V85H8.2793L5.87988 80.3154ZM3.7793 78.1797H5.90625C6.56836 78.1797 7.08105 78.0127 7.44434 77.6787C7.80762 77.3389 7.98926 76.873 7.98926 76.2812C7.98926 75.6777 7.81641 75.2031 7.4707 74.8574C7.13086 74.5117 6.60645 74.3389 5.89746 74.3389H3.7793V78.1797ZM16.8486 85.1758C15.4541 85.1758 14.3174 84.748 13.4385 83.8926C12.5654 83.0371 12.1289 81.8975 12.1289 80.4736V80.2275C12.1289 79.2725 12.3135 78.4199 12.6826 77.6699C13.0518 76.9141 13.5732 76.334 14.2471 75.9297C14.9268 75.5195 15.7002 75.3145 16.5674 75.3145C17.8682 75.3145 18.8906 75.7246 19.6348 76.5449C20.3848 77.3652 20.7598 78.5283 20.7598 80.0342V81.0713H14.7041C14.7861 81.6924 15.0322 82.1904 15.4424 82.5654C15.8584 82.9404 16.3828 83.1279 17.0156 83.1279C17.9941 83.1279 18.7588 82.7734 19.3096 82.0645L20.5576 83.4619C20.1768 84.001 19.6611 84.4229 19.0107 84.7275C18.3604 85.0264 17.6396 85.1758 16.8486 85.1758ZM16.5586 77.3711C16.0547 77.3711 15.6445 77.541 15.3281 77.8809C15.0176 78.2207 14.8184 78.707 14.7305 79.3398H18.2637V79.1377C18.252 78.5752 18.0996 78.1416 17.8066 77.8369C17.5137 77.5264 17.0977 77.3711 16.5586 77.3711ZM27.3604 82.3721C27.3604 82.0615 27.2051 81.8184 26.8945 81.6426C26.5898 81.4609 26.0977 81.2998 25.418 81.1592C23.1562 80.6846 22.0254 79.7236 22.0254 78.2764C22.0254 77.4326 22.374 76.7295 23.0713 76.167C23.7744 75.5986 24.6914 75.3145 25.8223 75.3145C27.0293 75.3145 27.9932 75.5986 28.7139 76.167C29.4404 76.7354 29.8037 77.4736 29.8037 78.3818H27.2637C27.2637 78.0186 27.1465 77.7197 26.9121 77.4854C26.6777 77.2451 26.3115 77.125 25.8135 77.125C25.3857 77.125 25.0547 77.2217 24.8203 77.415C24.5859 77.6084 24.4688 77.8545 24.4688 78.1533C24.4688 78.4346 24.6006 78.6631 24.8643 78.8389C25.1338 79.0088 25.585 79.1582 26.2178 79.2871C26.8506 79.4102 27.3838 79.5508 27.8174 79.709C29.1592 80.2012 29.8301 81.0537 29.8301 82.2666C29.8301 83.1338 29.458 83.8369 28.7139 84.376C27.9697 84.9092 27.0088 85.1758 25.8311 85.1758C25.0342 85.1758 24.3252 85.0352 23.7041 84.7539C23.0889 84.4668 22.6055 84.0771 22.2539 83.585C21.9023 83.0869 21.7266 82.5508 21.7266 81.9766H24.1348C24.1582 82.4277 24.3252 82.7734 24.6357 83.0137C24.9463 83.2539 25.3623 83.374 25.8838 83.374C26.3701 83.374 26.7363 83.2832 26.9824 83.1016C27.2344 82.9141 27.3604 82.6709 27.3604 82.3721ZM35.8506 85.1758C34.4561 85.1758 33.3193 84.748 32.4404 83.8926C31.5674 83.0371 31.1309 81.8975 31.1309 80.4736V80.2275C31.1309 79.2725 31.3154 78.4199 31.6846 77.6699C32.0537 76.9141 32.5752 76.334 33.249 75.9297C33.9287 75.5195 34.7021 75.3145 35.5693 75.3145C36.8701 75.3145 37.8926 75.7246 38.6367 76.5449C39.3867 77.3652 39.7617 78.5283 39.7617 80.0342V81.0713H33.7061C33.7881 81.6924 34.0342 82.1904 34.4443 82.5654C34.8604 82.9404 35.3848 83.1279 36.0176 83.1279C36.9961 83.1279 37.7607 82.7734 38.3115 82.0645L39.5596 83.4619C39.1787 84.001 38.6631 84.4229 38.0127 84.7275C37.3623 85.0264 36.6416 85.1758 35.8506 85.1758ZM35.5605 77.3711C35.0566 77.3711 34.6465 77.541 34.3301 77.8809C34.0195 78.2207 33.8203 78.707 33.7324 79.3398H37.2656V79.1377C37.2539 78.5752 37.1016 78.1416 36.8086 77.8369C36.5156 77.5264 36.0996 77.3711 35.5605 77.3711ZM46.5557 77.8721C46.21 77.8252 45.9053 77.8018 45.6416 77.8018C44.6807 77.8018 44.0508 78.127 43.752 78.7773V85H41.2119V75.4902H43.6113L43.6816 76.624C44.1914 75.751 44.8975 75.3145 45.7998 75.3145C46.0811 75.3145 46.3447 75.3525 46.5908 75.4287L46.5557 77.8721ZM51.5039 81.8975L53.2705 75.4902H55.9248L52.7168 85H50.291L47.083 75.4902H49.7373L51.5039 81.8975ZM62.4199 85C62.3027 84.7715 62.2178 84.4873 62.165 84.1475C61.5498 84.833 60.75 85.1758 59.7656 85.1758C58.834 85.1758 58.0605 84.9062 57.4453 84.3672C56.8359 83.8281 56.5312 83.1484 56.5312 82.3281C56.5312 81.3203 56.9033 80.5469 57.6475 80.0078C58.3975 79.4688 59.4785 79.1963 60.8906 79.1904H62.0596V78.6455C62.0596 78.2061 61.9453 77.8545 61.7168 77.5908C61.4941 77.3271 61.1396 77.1953 60.6533 77.1953C60.2256 77.1953 59.8887 77.2979 59.6426 77.5029C59.4023 77.708 59.2822 77.9893 59.2822 78.3467H56.7422C56.7422 77.7959 56.9121 77.2861 57.252 76.8174C57.5918 76.3486 58.0723 75.9824 58.6934 75.7188C59.3145 75.4492 60.0117 75.3145 60.7852 75.3145C61.957 75.3145 62.8857 75.6104 63.5713 76.2021C64.2627 76.7881 64.6084 77.6143 64.6084 78.6807V82.8027C64.6143 83.7051 64.7402 84.3877 64.9863 84.8506V85H62.4199ZM60.3193 83.2334C60.6943 83.2334 61.04 83.1514 61.3564 82.9873C61.6729 82.8174 61.9072 82.5918 62.0596 82.3105V80.6758H61.1104C59.8389 80.6758 59.1621 81.1152 59.0801 81.9941L59.0713 82.1436C59.0713 82.46 59.1826 82.7207 59.4053 82.9258C59.6279 83.1309 59.9326 83.2334 60.3193 83.2334ZM71.71 82.3721C71.71 82.0615 71.5547 81.8184 71.2441 81.6426C70.9395 81.4609 70.4473 81.2998 69.7676 81.1592C67.5059 80.6846 66.375 79.7236 66.375 78.2764C66.375 77.4326 66.7236 76.7295 67.4209 76.167C68.124 75.5986 69.041 75.3145 70.1719 75.3145C71.3789 75.3145 72.3428 75.5986 73.0635 76.167C73.79 76.7354 74.1533 77.4736 74.1533 78.3818H71.6133C71.6133 78.0186 71.4961 77.7197 71.2617 77.4854C71.0273 77.2451 70.6611 77.125 70.1631 77.125C69.7354 77.125 69.4043 77.2217 69.1699 77.415C68.9355 77.6084 68.8184 77.8545 68.8184 78.1533C68.8184 78.4346 68.9502 78.6631 69.2139 78.8389C69.4834 79.0088 69.9346 79.1582 70.5674 79.2871C71.2002 79.4102 71.7334 79.5508 72.167 79.709C73.5088 80.2012 74.1797 81.0537 74.1797 82.2666C74.1797 83.1338 73.8076 83.8369 73.0635 84.376C72.3193 84.9092 71.3584 85.1758 70.1807 85.1758C69.3838 85.1758 68.6748 85.0352 68.0537 84.7539C67.4385 84.4668 66.9551 84.0771 66.6035 83.585C66.252 83.0869 66.0762 82.5508 66.0762 81.9766H68.4844C68.5078 82.4277 68.6748 82.7734 68.9854 83.0137C69.2959 83.2539 69.7119 83.374 70.2334 83.374C70.7197 83.374 71.0859 83.2832 71.332 83.1016C71.584 82.9141 71.71 82.6709 71.71 82.3721ZM78.5039 85H75.9551V75.4902H78.5039V85ZM75.8057 73.0293C75.8057 72.6484 75.9316 72.335 76.1836 72.0889C76.4414 71.8428 76.79 71.7197 77.2295 71.7197C77.6631 71.7197 78.0088 71.8428 78.2666 72.0889C78.5244 72.335 78.6533 72.6484 78.6533 73.0293C78.6533 73.416 78.5215 73.7324 78.2578 73.9785C78 74.2246 77.6572 74.3477 77.2295 74.3477C76.8018 74.3477 76.4561 74.2246 76.1924 73.9785C75.9346 73.7324 75.8057 73.416 75.8057 73.0293Z" fill="white"/>
<path d="M48.04 38.8267C43.56 36.5333 37.7467 34.6667 31 34.6667C24.2533 34.6667 18.44 36.5333 13.96 38.8267C12.6588 39.4969 11.5688 40.5145 10.8109 41.7666C10.0531 43.0187 9.657 44.4564 9.66668 45.92V53.3333H52.3333V45.92C52.3333 42.9333 50.7067 40.1867 48.04 38.8267ZM31 32C36.8933 32 41.6667 27.2267 41.6667 21.3333C41.6667 15.44 36.8933 10.6667 31 10.6667C25.1067 10.6667 20.3333 15.44 20.3333 21.3333C20.3333 27.2267 25.1067 32 31 32ZM60.3333 24V18.6667C60.3333 17.2 59.1333 16 57.6667 16C56.2 16 55 17.2 55 18.6667V24H49.6667C48.2 24 47 25.2 47 26.6667C47 28.1333 48.2 29.3333 49.6667 29.3333H55V34.6667C55 36.1333 56.2 37.3333 57.6667 37.3333C59.1333 37.3333 60.3333 36.1333 60.3333 34.6667V29.3333H65.6667C67.1333 29.3333 68.3333 28.1333 68.3333 26.6667C68.3333 25.2 67.1333 24 65.6667 24H60.3333Z" fill="white"/>
</svg>
