<svg width="44" height="44" viewBox="0 0 44 44" fill="none" xmlns="http://www.w3.org/2000/svg">
<path d="M23.8333 13.75H33V17.4167H23.8333V13.75ZM23.8333 26.5833H33V30.25H23.8333V26.5833ZM34.8333 5.5H9.16667C7.15 5.5 5.5 7.15 5.5 9.16667V34.8333C5.5 36.85 7.15 38.5 9.16667 38.5H34.8333C36.85 38.5 38.5 36.85 38.5 34.8333V9.16667C38.5 7.15 36.85 5.5 34.8333 5.5ZM34.8333 34.8333H9.16667V9.16667H34.8333V34.8333ZM20.1667 11H11V20.1667H20.1667V11ZM18.3333 18.3333H12.8333V12.8333H18.3333V18.3333ZM20.1667 23.8333H11V33H20.1667V23.8333ZM18.3333 31.1667H12.8333V25.6667H18.3333V31.1667Z" fill="#6052E0"/>
</svg>
