<svg width="44" height="44" viewBox="0 0 44 44" fill="none" xmlns="http://www.w3.org/2000/svg">
<path d="M7.33333 23.8335C8.34167 23.8335 9.16667 23.0085 9.16667 22.0002C9.16667 20.9918 8.34167 20.1668 7.33333 20.1668C6.325 20.1668 5.5 20.9918 5.5 22.0002C5.5 23.0085 6.325 23.8335 7.33333 23.8335ZM7.33333 31.1668C8.34167 31.1668 9.16667 30.3418 9.16667 29.3335C9.16667 28.3252 8.34167 27.5002 7.33333 27.5002C6.325 27.5002 5.5 28.3252 5.5 29.3335C5.5 30.3418 6.325 31.1668 7.33333 31.1668ZM7.33333 16.5002C8.34167 16.5002 9.16667 15.6752 9.16667 14.6668C9.16667 13.6585 8.34167 12.8335 7.33333 12.8335C6.325 12.8335 5.5 13.6585 5.5 14.6668C5.5 15.6752 6.325 16.5002 7.33333 16.5002ZM14.6667 23.8335H36.6667C37.675 23.8335 38.5 23.0085 38.5 22.0002C38.5 20.9918 37.675 20.1668 36.6667 20.1668H14.6667C13.6583 20.1668 12.8333 20.9918 12.8333 22.0002C12.8333 23.0085 13.6583 23.8335 14.6667 23.8335ZM14.6667 31.1668H36.6667C37.675 31.1668 38.5 30.3418 38.5 29.3335C38.5 28.3252 37.675 27.5002 36.6667 27.5002H14.6667C13.6583 27.5002 12.8333 28.3252 12.8333 29.3335C12.8333 30.3418 13.6583 31.1668 14.6667 31.1668ZM12.8333 14.6668C12.8333 15.6752 13.6583 16.5002 14.6667 16.5002H36.6667C37.675 16.5002 38.5 15.6752 38.5 14.6668C38.5 13.6585 37.675 12.8335 36.6667 12.8335H14.6667C13.6583 12.8335 12.8333 13.6585 12.8333 14.6668ZM7.33333 23.8335C8.34167 23.8335 9.16667 23.0085 9.16667 22.0002C9.16667 20.9918 8.34167 20.1668 7.33333 20.1668C6.325 20.1668 5.5 20.9918 5.5 22.0002C5.5 23.0085 6.325 23.8335 7.33333 23.8335ZM7.33333 31.1668C8.34167 31.1668 9.16667 30.3418 9.16667 29.3335C9.16667 28.3252 8.34167 27.5002 7.33333 27.5002C6.325 27.5002 5.5 28.3252 5.5 29.3335C5.5 30.3418 6.325 31.1668 7.33333 31.1668ZM7.33333 16.5002C8.34167 16.5002 9.16667 15.6752 9.16667 14.6668C9.16667 13.6585 8.34167 12.8335 7.33333 12.8335C6.325 12.8335 5.5 13.6585 5.5 14.6668C5.5 15.6752 6.325 16.5002 7.33333 16.5002ZM14.6667 23.8335H36.6667C37.675 23.8335 38.5 23.0085 38.5 22.0002C38.5 20.9918 37.675 20.1668 36.6667 20.1668H14.6667C13.6583 20.1668 12.8333 20.9918 12.8333 22.0002C12.8333 23.0085 13.6583 23.8335 14.6667 23.8335ZM14.6667 31.1668H36.6667C37.675 31.1668 38.5 30.3418 38.5 29.3335C38.5 28.3252 37.675 27.5002 36.6667 27.5002H14.6667C13.6583 27.5002 12.8333 28.3252 12.8333 29.3335C12.8333 30.3418 13.6583 31.1668 14.6667 31.1668ZM12.8333 14.6668C12.8333 15.6752 13.6583 16.5002 14.6667 16.5002H36.6667C37.675 16.5002 38.5 15.6752 38.5 14.6668C38.5 13.6585 37.675 12.8335 36.6667 12.8335H14.6667C13.6583 12.8335 12.8333 13.6585 12.8333 14.6668Z" fill="#6052E0"/>
</svg>
