<svg width="32" height="32" viewBox="0 0 32 32" fill="none" xmlns="http://www.w3.org/2000/svg">
<path d="M14.8667 4.53323L9.90671 12.6399C9.36004 13.5199 10 14.6666 11.04 14.6666H20.9467C21.9867 14.6666 22.6267 13.5199 22.08 12.6399L17.1334 4.54656C17.0157 4.35198 16.85 4.19084 16.6522 4.07857C16.4545 3.96629 16.2312 3.90663 16.0038 3.9053C15.7764 3.90396 15.5524 3.96099 15.3533 4.07093C15.1542 4.18087 14.9867 4.34004 14.8667 4.53323V4.53323Z" fill="#080808"/>
<path d="M23.3334 29.3335C26.6471 29.3335 29.3334 26.6472 29.3334 23.3335C29.3334 20.0198 26.6471 17.3335 23.3334 17.3335C20.0197 17.3335 17.3334 20.0198 17.3334 23.3335C17.3334 26.6472 20.0197 29.3335 23.3334 29.3335Z" fill="#080808"/>
<path d="M5.33333 28.6667H13.3333C14.0667 28.6667 14.6667 28.0667 14.6667 27.3333V19.3333C14.6667 18.6 14.0667 18 13.3333 18H5.33333C4.6 18 4 18.6 4 19.3333V27.3333C4 28.0667 4.6 28.6667 5.33333 28.6667Z" fill="#080808"/>
</svg>
