<svg width="99" height="89" viewBox="0 0 99 89" fill="none" xmlns="http://www.w3.org/2000/svg">
<path d="M1.14258 85V72.2031H5.08008C6.20508 72.2031 7.20996 72.458 8.09473 72.9678C8.98535 73.4717 9.67969 74.1924 10.1777 75.1299C10.6758 76.0615 10.9248 77.1221 10.9248 78.3115V78.9004C10.9248 80.0898 10.6787 81.1475 10.1865 82.0732C9.7002 82.999 9.01172 83.7168 8.12109 84.2266C7.23047 84.7363 6.22559 84.9941 5.10645 85H1.14258ZM3.7793 74.3389V82.8818H5.05371C6.08496 82.8818 6.87305 82.5449 7.41797 81.8711C7.96289 81.1973 8.24121 80.2334 8.25293 78.9795V78.3027C8.25293 77.002 7.9834 76.0176 7.44434 75.3496C6.90527 74.6758 6.11719 74.3389 5.08008 74.3389H3.7793ZM18.1934 85C18.0762 84.7715 17.9912 84.4873 17.9385 84.1475C17.3232 84.833 16.5234 85.1758 15.5391 85.1758C14.6074 85.1758 13.834 84.9062 13.2188 84.3672C12.6094 83.8281 12.3047 83.1484 12.3047 82.3281C12.3047 81.3203 12.6768 80.5469 13.4209 80.0078C14.1709 79.4688 15.252 79.1963 16.6641 79.1904H17.833V78.6455C17.833 78.2061 17.7188 77.8545 17.4902 77.5908C17.2676 77.3271 16.9131 77.1953 16.4268 77.1953C15.999 77.1953 15.6621 77.2979 15.416 77.5029C15.1758 77.708 15.0557 77.9893 15.0557 78.3467H12.5156C12.5156 77.7959 12.6855 77.2861 13.0254 76.8174C13.3652 76.3486 13.8457 75.9824 14.4668 75.7188C15.0879 75.4492 15.7852 75.3145 16.5586 75.3145C17.7305 75.3145 18.6592 75.6104 19.3447 76.2021C20.0361 76.7881 20.3818 77.6143 20.3818 78.6807V82.8027C20.3877 83.7051 20.5137 84.3877 20.7598 84.8506V85H18.1934ZM16.0928 83.2334C16.4678 83.2334 16.8135 83.1514 17.1299 82.9873C17.4463 82.8174 17.6807 82.5918 17.833 82.3105V80.6758H16.8838C15.6123 80.6758 14.9355 81.1152 14.8535 81.9941L14.8447 82.1436C14.8447 82.46 14.9561 82.7207 15.1787 82.9258C15.4014 83.1309 15.7061 83.2334 16.0928 83.2334ZM25.374 73.1523V75.4902H27V77.3535H25.374V82.0996C25.374 82.4512 25.4414 82.7031 25.5762 82.8555C25.7109 83.0078 25.9688 83.084 26.3496 83.084C26.6309 83.084 26.8799 83.0635 27.0967 83.0225V84.9473C26.5986 85.0996 26.0859 85.1758 25.5586 85.1758C23.7773 85.1758 22.8691 84.2764 22.834 82.4775V77.3535H21.4453V75.4902H22.834V73.1523H25.374ZM33.9258 85C33.8086 84.7715 33.7236 84.4873 33.6709 84.1475C33.0557 84.833 32.2559 85.1758 31.2715 85.1758C30.3398 85.1758 29.5664 84.9062 28.9512 84.3672C28.3418 83.8281 28.0371 83.1484 28.0371 82.3281C28.0371 81.3203 28.4092 80.5469 29.1533 80.0078C29.9033 79.4688 30.9844 79.1963 32.3965 79.1904H33.5654V78.6455C33.5654 78.2061 33.4512 77.8545 33.2227 77.5908C33 77.3271 32.6455 77.1953 32.1592 77.1953C31.7314 77.1953 31.3945 77.2979 31.1484 77.5029C30.9082 77.708 30.7881 77.9893 30.7881 78.3467H28.248C28.248 77.7959 28.418 77.2861 28.7578 76.8174C29.0977 76.3486 29.5781 75.9824 30.1992 75.7188C30.8203 75.4492 31.5176 75.3145 32.291 75.3145C33.4629 75.3145 34.3916 75.6104 35.0771 76.2021C35.7686 76.7881 36.1143 77.6143 36.1143 78.6807V82.8027C36.1201 83.7051 36.2461 84.3877 36.4922 84.8506V85H33.9258ZM31.8252 83.2334C32.2002 83.2334 32.5459 83.1514 32.8623 82.9873C33.1787 82.8174 33.4131 82.5918 33.5654 82.3105V80.6758H32.6162C31.3447 80.6758 30.668 81.1152 30.5859 81.9941L30.5771 82.1436C30.5771 82.46 30.6885 82.7207 30.9111 82.9258C31.1338 83.1309 31.4385 83.2334 31.8252 83.2334ZM46.1602 72.2031L49.4473 81.4844L52.7168 72.2031H56.1797V85H53.5342V81.502L53.7979 75.4639L50.3438 85H48.5332L45.0879 75.4727L45.3516 81.502V85H42.7148V72.2031H46.1602ZM63.8262 85C63.709 84.7715 63.624 84.4873 63.5713 84.1475C62.9561 84.833 62.1562 85.1758 61.1719 85.1758C60.2402 85.1758 59.4668 84.9062 58.8516 84.3672C58.2422 83.8281 57.9375 83.1484 57.9375 82.3281C57.9375 81.3203 58.3096 80.5469 59.0537 80.0078C59.8037 79.4688 60.8848 79.1963 62.2969 79.1904H63.4658V78.6455C63.4658 78.2061 63.3516 77.8545 63.123 77.5908C62.9004 77.3271 62.5459 77.1953 62.0596 77.1953C61.6318 77.1953 61.2949 77.2979 61.0488 77.5029C60.8086 77.708 60.6885 77.9893 60.6885 78.3467H58.1484C58.1484 77.7959 58.3184 77.2861 58.6582 76.8174C58.998 76.3486 59.4785 75.9824 60.0996 75.7188C60.7207 75.4492 61.418 75.3145 62.1914 75.3145C63.3633 75.3145 64.292 75.6104 64.9775 76.2021C65.6689 76.7881 66.0146 77.6143 66.0146 78.6807V82.8027C66.0205 83.7051 66.1465 84.3877 66.3926 84.8506V85H63.8262ZM61.7256 83.2334C62.1006 83.2334 62.4463 83.1514 62.7627 82.9873C63.0791 82.8174 63.3135 82.5918 63.4658 82.3105V80.6758H62.5166C61.2451 80.6758 60.5684 81.1152 60.4863 81.9941L60.4775 82.1436C60.4775 82.46 60.5889 82.7207 60.8115 82.9258C61.0342 83.1309 61.3389 83.2334 61.7256 83.2334ZM73.1162 82.3721C73.1162 82.0615 72.9609 81.8184 72.6504 81.6426C72.3457 81.4609 71.8535 81.2998 71.1738 81.1592C68.9121 80.6846 67.7812 79.7236 67.7812 78.2764C67.7812 77.4326 68.1299 76.7295 68.8271 76.167C69.5303 75.5986 70.4473 75.3145 71.5781 75.3145C72.7852 75.3145 73.749 75.5986 74.4697 76.167C75.1963 76.7354 75.5596 77.4736 75.5596 78.3818H73.0195C73.0195 78.0186 72.9023 77.7197 72.668 77.4854C72.4336 77.2451 72.0674 77.125 71.5693 77.125C71.1416 77.125 70.8105 77.2217 70.5762 77.415C70.3418 77.6084 70.2246 77.8545 70.2246 78.1533C70.2246 78.4346 70.3564 78.6631 70.6201 78.8389C70.8896 79.0088 71.3408 79.1582 71.9736 79.2871C72.6064 79.4102 73.1396 79.5508 73.5732 79.709C74.915 80.2012 75.5859 81.0537 75.5859 82.2666C75.5859 83.1338 75.2139 83.8369 74.4697 84.376C73.7256 84.9092 72.7646 85.1758 71.5869 85.1758C70.79 85.1758 70.0811 85.0352 69.46 84.7539C68.8447 84.4668 68.3613 84.0771 68.0098 83.585C67.6582 83.0869 67.4824 82.5508 67.4824 81.9766H69.8906C69.9141 82.4277 70.0811 82.7734 70.3916 83.0137C70.7021 83.2539 71.1182 83.374 71.6396 83.374C72.126 83.374 72.4922 83.2832 72.7383 83.1016C72.9902 82.9141 73.1162 82.6709 73.1162 82.3721ZM80.2705 73.1523V75.4902H81.8965V77.3535H80.2705V82.0996C80.2705 82.4512 80.3379 82.7031 80.4727 82.8555C80.6074 83.0078 80.8652 83.084 81.2461 83.084C81.5273 83.084 81.7764 83.0635 81.9932 83.0225V84.9473C81.4951 85.0996 80.9824 85.1758 80.4551 85.1758C78.6738 85.1758 77.7656 84.2764 77.7305 82.4775V77.3535H76.3418V75.4902H77.7305V73.1523H80.2705ZM87.6885 85.1758C86.2939 85.1758 85.1572 84.748 84.2783 83.8926C83.4053 83.0371 82.9688 81.8975 82.9688 80.4736V80.2275C82.9688 79.2725 83.1533 78.4199 83.5225 77.6699C83.8916 76.9141 84.4131 76.334 85.0869 75.9297C85.7666 75.5195 86.54 75.3145 87.4072 75.3145C88.708 75.3145 89.7305 75.7246 90.4746 76.5449C91.2246 77.3652 91.5996 78.5283 91.5996 80.0342V81.0713H85.5439C85.626 81.6924 85.8721 82.1904 86.2822 82.5654C86.6982 82.9404 87.2227 83.1279 87.8555 83.1279C88.834 83.1279 89.5986 82.7734 90.1494 82.0645L91.3975 83.4619C91.0166 84.001 90.501 84.4229 89.8506 84.7275C89.2002 85.0264 88.4795 85.1758 87.6885 85.1758ZM87.3984 77.3711C86.8945 77.3711 86.4844 77.541 86.168 77.8809C85.8574 78.2207 85.6582 78.707 85.5703 79.3398H89.1035V79.1377C89.0918 78.5752 88.9395 78.1416 88.6465 77.8369C88.3535 77.5264 87.9375 77.3711 87.3984 77.3711ZM98.3936 77.8721C98.0479 77.8252 97.7432 77.8018 97.4795 77.8018C96.5186 77.8018 95.8887 78.127 95.5898 78.7773V85H93.0498V75.4902H95.4492L95.5195 76.624C96.0293 75.751 96.7354 75.3145 97.6377 75.3145C97.9189 75.3145 98.1826 75.3525 98.4287 75.4287L98.3936 77.8721Z" fill="white"/>
<path d="M71.3333 26.6667V18.6667C71.3333 15.7333 68.9333 13.3333 65.9999 13.3333H33.9999C31.0666 13.3333 28.6666 15.7333 28.6666 18.6667V26.6667C25.7333 26.6667 23.3333 29.0667 23.3333 32V45.3333H26.8799L28.6666 50.6667H31.3333L33.1199 45.3333H66.9066L68.6666 50.6667H71.3333L73.1199 45.3333H76.6666V32C76.6666 29.0667 74.2666 26.6667 71.3333 26.6667ZM47.3333 26.6667H33.9999V18.6667H47.3333V26.6667ZM65.9999 26.6667H52.6666V18.6667H65.9999V26.6667Z" fill="white"/>
</svg>
