<svg width="64" height="89" viewBox="0 0 64 89" fill="none" xmlns="http://www.w3.org/2000/svg">
<path d="M19.7754 74.3389H15.8555V85H13.2188V74.3389H9.35156V72.2031H19.7754V74.3389ZM25.1543 85C25.0371 84.7715 24.9521 84.4873 24.8994 84.1475C24.2842 84.833 23.4844 85.1758 22.5 85.1758C21.5684 85.1758 20.7949 84.9062 20.1797 84.3672C19.5703 83.8281 19.2656 83.1484 19.2656 82.3281C19.2656 81.3203 19.6377 80.5469 20.3818 80.0078C21.1318 79.4688 22.2129 79.1963 23.625 79.1904H24.7939V78.6455C24.7939 78.2061 24.6797 77.8545 24.4512 77.5908C24.2285 77.3271 23.874 77.1953 23.3877 77.1953C22.96 77.1953 22.623 77.2979 22.377 77.5029C22.1367 77.708 22.0166 77.9893 22.0166 78.3467H19.4766C19.4766 77.7959 19.6465 77.2861 19.9863 76.8174C20.3262 76.3486 20.8066 75.9824 21.4277 75.7188C22.0488 75.4492 22.7461 75.3145 23.5195 75.3145C24.6914 75.3145 25.6201 75.6104 26.3057 76.2021C26.9971 76.7881 27.3428 77.6143 27.3428 78.6807V82.8027C27.3486 83.7051 27.4746 84.3877 27.7207 84.8506V85H25.1543ZM23.0537 83.2334C23.4287 83.2334 23.7744 83.1514 24.0908 82.9873C24.4072 82.8174 24.6416 82.5918 24.7939 82.3105V80.6758H23.8447C22.5732 80.6758 21.8965 81.1152 21.8145 81.9941L21.8057 82.1436C21.8057 82.46 21.917 82.7207 22.1396 82.9258C22.3623 83.1309 22.667 83.2334 23.0537 83.2334ZM31.6758 75.4902L31.7549 76.5537C32.4287 75.7275 33.3398 75.3145 34.4883 75.3145C35.7129 75.3145 36.5537 75.7979 37.0107 76.7646C37.6787 75.7979 38.6309 75.3145 39.8672 75.3145C40.8984 75.3145 41.666 75.6162 42.1699 76.2197C42.6738 76.8174 42.9258 77.7197 42.9258 78.9268V85H40.377V78.9355C40.377 78.3965 40.2715 78.0039 40.0605 77.7578C39.8496 77.5059 39.4775 77.3799 38.9443 77.3799C38.1826 77.3799 37.6553 77.7432 37.3623 78.4697L37.3711 85H34.8311V78.9443C34.8311 78.3936 34.7227 77.9951 34.5059 77.749C34.2891 77.5029 33.9199 77.3799 33.3984 77.3799C32.6777 77.3799 32.1562 77.6787 31.834 78.2764V85H29.2939V75.4902H31.6758ZM50.5811 84.0332C49.9541 84.7949 49.0869 85.1758 47.9795 85.1758C46.96 85.1758 46.1807 84.8828 45.6416 84.2969C45.1084 83.7109 44.8359 82.8525 44.8242 81.7217V75.4902H47.3643V81.6338C47.3643 82.624 47.8154 83.1191 48.7178 83.1191C49.5791 83.1191 50.1709 82.8203 50.4932 82.2227V75.4902H53.042V85H50.6514L50.5811 84.0332Z" fill="white"/>
<path d="M48.0001 5.33333H16.0001C13.0667 5.33333 10.6667 7.73333 10.6667 10.6667V58.6667H53.3334V10.6667C53.3334 7.73333 50.9334 5.33333 48.0001 5.33333ZM41.3334 36C39.1201 36 37.3334 34.2133 37.3334 32C37.3334 29.7867 39.1201 28 41.3334 28C43.5467 28 45.3334 29.7867 45.3334 32C45.3334 34.2133 43.5467 36 41.3334 36Z" fill="white"/>
</svg>
