<svg width="164" height="89" viewBox="0 0 164 89" fill="none" xmlns="http://www.w3.org/2000/svg">
<path d="M11.5576 85H8.9209V79.5156H3.7793V85H1.14258V72.2031H3.7793V77.3887H8.9209V72.2031H11.5576V85ZM16.3828 85H13.834V75.4902H16.3828V85ZM13.6846 73.0293C13.6846 72.6484 13.8105 72.335 14.0625 72.0889C14.3203 71.8428 14.6689 71.7197 15.1084 71.7197C15.542 71.7197 15.8877 71.8428 16.1455 72.0889C16.4033 72.335 16.5322 72.6484 16.5322 73.0293C16.5322 73.416 16.4004 73.7324 16.1367 73.9785C15.8789 74.2246 15.5361 74.3477 15.1084 74.3477C14.6807 74.3477 14.335 74.2246 14.0713 73.9785C13.8135 73.7324 13.6846 73.416 13.6846 73.0293ZM23.6338 82.3721C23.6338 82.0615 23.4785 81.8184 23.168 81.6426C22.8633 81.4609 22.3711 81.2998 21.6914 81.1592C19.4297 80.6846 18.2988 79.7236 18.2988 78.2764C18.2988 77.4326 18.6475 76.7295 19.3447 76.167C20.0479 75.5986 20.9648 75.3145 22.0957 75.3145C23.3027 75.3145 24.2666 75.5986 24.9873 76.167C25.7139 76.7354 26.0771 77.4736 26.0771 78.3818H23.5371C23.5371 78.0186 23.4199 77.7197 23.1855 77.4854C22.9512 77.2451 22.585 77.125 22.0869 77.125C21.6592 77.125 21.3281 77.2217 21.0938 77.415C20.8594 77.6084 20.7422 77.8545 20.7422 78.1533C20.7422 78.4346 20.874 78.6631 21.1377 78.8389C21.4072 79.0088 21.8584 79.1582 22.4912 79.2871C23.124 79.4102 23.6572 79.5508 24.0908 79.709C25.4326 80.2012 26.1035 81.0537 26.1035 82.2666C26.1035 83.1338 25.7314 83.8369 24.9873 84.376C24.2432 84.9092 23.2822 85.1758 22.1045 85.1758C21.3076 85.1758 20.5986 85.0352 19.9775 84.7539C19.3623 84.4668 18.8789 84.0771 18.5273 83.585C18.1758 83.0869 18 82.5508 18 81.9766H20.4082C20.4316 82.4277 20.5986 82.7734 20.9092 83.0137C21.2197 83.2539 21.6357 83.374 22.1572 83.374C22.6436 83.374 23.0098 83.2832 23.2559 83.1016C23.5078 82.9141 23.6338 82.6709 23.6338 82.3721ZM30.7881 73.1523V75.4902H32.4141V77.3535H30.7881V82.0996C30.7881 82.4512 30.8555 82.7031 30.9902 82.8555C31.125 83.0078 31.3828 83.084 31.7637 83.084C32.0449 83.084 32.2939 83.0635 32.5107 83.0225V84.9473C32.0127 85.0996 31.5 85.1758 30.9727 85.1758C29.1914 85.1758 28.2832 84.2764 28.248 82.4775V77.3535H26.8594V75.4902H28.248V73.1523H30.7881ZM33.1699 80.1572C33.1699 79.2139 33.3516 78.373 33.7148 77.6348C34.0781 76.8965 34.5996 76.3252 35.2793 75.9209C35.9648 75.5166 36.7588 75.3145 37.6611 75.3145C38.9443 75.3145 39.9902 75.707 40.7988 76.4922C41.6133 77.2773 42.0674 78.3438 42.1611 79.6914L42.1787 80.3418C42.1787 81.8008 41.7715 82.9727 40.957 83.8574C40.1426 84.7363 39.0498 85.1758 37.6787 85.1758C36.3076 85.1758 35.2119 84.7363 34.3916 83.8574C33.5771 82.9785 33.1699 81.7832 33.1699 80.2715V80.1572ZM35.71 80.3418C35.71 81.2441 35.8799 81.9355 36.2197 82.416C36.5596 82.8906 37.0459 83.1279 37.6787 83.1279C38.2939 83.1279 38.7744 82.8936 39.1201 82.4248C39.4658 81.9502 39.6387 81.1943 39.6387 80.1572C39.6387 79.2725 39.4658 78.5869 39.1201 78.1006C38.7744 77.6143 38.2881 77.3711 37.6611 77.3711C37.04 77.3711 36.5596 77.6143 36.2197 78.1006C35.8799 78.5811 35.71 79.3281 35.71 80.3418ZM49.0869 77.8721C48.7412 77.8252 48.4365 77.8018 48.1729 77.8018C47.2119 77.8018 46.582 78.127 46.2832 78.7773V85H43.7432V75.4902H46.1426L46.2129 76.624C46.7227 75.751 47.4287 75.3145 48.3311 75.3145C48.6123 75.3145 48.876 75.3525 49.1221 75.4287L49.0869 77.8721ZM54.0264 81.4053L55.7842 75.4902H58.5088L54.6855 86.4766L54.4746 86.9775C53.9062 88.2197 52.9688 88.8408 51.6621 88.8408C51.293 88.8408 50.918 88.7852 50.5371 88.6738V86.749L50.9238 86.7578C51.4043 86.7578 51.7617 86.6846 51.9961 86.5381C52.2363 86.3916 52.4238 86.1484 52.5586 85.8086L52.8574 85.0264L49.5264 75.4902H52.2598L54.0264 81.4053ZM63.5977 80.1748C63.5977 78.6924 63.9287 77.5117 64.5908 76.6328C65.2588 75.7539 66.1699 75.3145 67.3242 75.3145C68.25 75.3145 69.0146 75.6602 69.6182 76.3516V71.5H72.167V85H69.873L69.75 83.9893C69.1172 84.7803 68.3027 85.1758 67.3066 85.1758C66.1875 85.1758 65.2881 84.7363 64.6084 83.8574C63.9346 82.9727 63.5977 81.7451 63.5977 80.1748ZM66.1377 80.3594C66.1377 81.25 66.293 81.9326 66.6035 82.4072C66.9141 82.8818 67.3652 83.1191 67.957 83.1191C68.7422 83.1191 69.2959 82.7881 69.6182 82.126V78.373C69.3018 77.7109 68.7539 77.3799 67.9746 77.3799C66.75 77.3799 66.1377 78.373 66.1377 80.3594ZM79.6465 85C79.5293 84.7715 79.4443 84.4873 79.3916 84.1475C78.7764 84.833 77.9766 85.1758 76.9922 85.1758C76.0605 85.1758 75.2871 84.9062 74.6719 84.3672C74.0625 83.8281 73.7578 83.1484 73.7578 82.3281C73.7578 81.3203 74.1299 80.5469 74.874 80.0078C75.624 79.4688 76.7051 79.1963 78.1172 79.1904H79.2861V78.6455C79.2861 78.2061 79.1719 77.8545 78.9434 77.5908C78.7207 77.3271 78.3662 77.1953 77.8799 77.1953C77.4521 77.1953 77.1152 77.2979 76.8691 77.5029C76.6289 77.708 76.5088 77.9893 76.5088 78.3467H73.9688C73.9688 77.7959 74.1387 77.2861 74.4785 76.8174C74.8184 76.3486 75.2988 75.9824 75.9199 75.7188C76.541 75.4492 77.2383 75.3145 78.0117 75.3145C79.1836 75.3145 80.1123 75.6104 80.7979 76.2021C81.4893 76.7881 81.835 77.6143 81.835 78.6807V82.8027C81.8408 83.7051 81.9668 84.3877 82.2129 84.8506V85H79.6465ZM77.5459 83.2334C77.9209 83.2334 78.2666 83.1514 78.583 82.9873C78.8994 82.8174 79.1338 82.5918 79.2861 82.3105V80.6758H78.3369C77.0654 80.6758 76.3887 81.1152 76.3066 81.9941L76.2979 82.1436C76.2979 82.46 76.4092 82.7207 76.6318 82.9258C76.8545 83.1309 77.1592 83.2334 77.5459 83.2334ZM86.124 75.4902L86.2031 76.5889C86.8828 75.7393 87.7939 75.3145 88.9365 75.3145C89.9443 75.3145 90.6943 75.6104 91.1865 76.2021C91.6787 76.7939 91.9307 77.6787 91.9424 78.8564V85H89.4023V78.918C89.4023 78.3789 89.2852 77.9893 89.0508 77.749C88.8164 77.5029 88.4268 77.3799 87.8818 77.3799C87.167 77.3799 86.6309 77.6846 86.2734 78.2939V85H83.7334V75.4902H86.124ZM101.162 82.8818H106.761V85H98.5254V72.2031H101.162V82.8818ZM113.625 85C113.508 84.7715 113.423 84.4873 113.37 84.1475C112.755 84.833 111.955 85.1758 110.971 85.1758C110.039 85.1758 109.266 84.9062 108.65 84.3672C108.041 83.8281 107.736 83.1484 107.736 82.3281C107.736 81.3203 108.108 80.5469 108.853 80.0078C109.603 79.4688 110.684 79.1963 112.096 79.1904H113.265V78.6455C113.265 78.2061 113.15 77.8545 112.922 77.5908C112.699 77.3271 112.345 77.1953 111.858 77.1953C111.431 77.1953 111.094 77.2979 110.848 77.5029C110.607 77.708 110.487 77.9893 110.487 78.3467H107.947C107.947 77.7959 108.117 77.2861 108.457 76.8174C108.797 76.3486 109.277 75.9824 109.898 75.7188C110.52 75.4492 111.217 75.3145 111.99 75.3145C113.162 75.3145 114.091 75.6104 114.776 76.2021C115.468 76.7881 115.813 77.6143 115.813 78.6807V82.8027C115.819 83.7051 115.945 84.3877 116.191 84.8506V85H113.625ZM111.524 83.2334C111.899 83.2334 112.245 83.1514 112.562 82.9873C112.878 82.8174 113.112 82.5918 113.265 82.3105V80.6758H112.315C111.044 80.6758 110.367 81.1152 110.285 81.9941L110.276 82.1436C110.276 82.46 110.388 82.7207 110.61 82.9258C110.833 83.1309 111.138 83.2334 111.524 83.2334ZM126.325 80.333C126.325 81.7979 125.991 82.9727 125.323 83.8574C124.661 84.7363 123.765 85.1758 122.634 85.1758C121.673 85.1758 120.896 84.8418 120.305 84.1738V88.6562H117.765V75.4902H120.12L120.208 76.4219C120.823 75.6836 121.626 75.3145 122.616 75.3145C123.788 75.3145 124.699 75.748 125.35 76.6152C126 77.4824 126.325 78.6777 126.325 80.2012V80.333ZM123.785 80.1484C123.785 79.2637 123.627 78.5811 123.311 78.1006C123 77.6201 122.546 77.3799 121.948 77.3799C121.151 77.3799 120.604 77.6846 120.305 78.2939V82.1875C120.615 82.8145 121.169 83.1279 121.966 83.1279C123.179 83.1279 123.785 82.1348 123.785 80.1484ZM127.512 80.1572C127.512 79.2139 127.693 78.373 128.057 77.6348C128.42 76.8965 128.941 76.3252 129.621 75.9209C130.307 75.5166 131.101 75.3145 132.003 75.3145C133.286 75.3145 134.332 75.707 135.141 76.4922C135.955 77.2773 136.409 78.3438 136.503 79.6914L136.521 80.3418C136.521 81.8008 136.113 82.9727 135.299 83.8574C134.484 84.7363 133.392 85.1758 132.021 85.1758C130.649 85.1758 129.554 84.7363 128.733 83.8574C127.919 82.9785 127.512 81.7832 127.512 80.2715V80.1572ZM130.052 80.3418C130.052 81.2441 130.222 81.9355 130.562 82.416C130.901 82.8906 131.388 83.1279 132.021 83.1279C132.636 83.1279 133.116 82.8936 133.462 82.4248C133.808 81.9502 133.98 81.1943 133.98 80.1572C133.98 79.2725 133.808 78.5869 133.462 78.1006C133.116 77.6143 132.63 77.3711 132.003 77.3711C131.382 77.3711 130.901 77.6143 130.562 78.1006C130.222 78.5811 130.052 79.3281 130.052 80.3418ZM143.429 77.8721C143.083 77.8252 142.778 77.8018 142.515 77.8018C141.554 77.8018 140.924 78.127 140.625 78.7773V85H138.085V75.4902H140.484L140.555 76.624C141.064 75.751 141.771 75.3145 142.673 75.3145C142.954 75.3145 143.218 75.3525 143.464 75.4287L143.429 77.8721ZM149.906 85C149.789 84.7715 149.704 84.4873 149.651 84.1475C149.036 84.833 148.236 85.1758 147.252 85.1758C146.32 85.1758 145.547 84.9062 144.932 84.3672C144.322 83.8281 144.018 83.1484 144.018 82.3281C144.018 81.3203 144.39 80.5469 145.134 80.0078C145.884 79.4688 146.965 79.1963 148.377 79.1904H149.546V78.6455C149.546 78.2061 149.432 77.8545 149.203 77.5908C148.98 77.3271 148.626 77.1953 148.14 77.1953C147.712 77.1953 147.375 77.2979 147.129 77.5029C146.889 77.708 146.769 77.9893 146.769 78.3467H144.229C144.229 77.7959 144.398 77.2861 144.738 76.8174C145.078 76.3486 145.559 75.9824 146.18 75.7188C146.801 75.4492 147.498 75.3145 148.271 75.3145C149.443 75.3145 150.372 75.6104 151.058 76.2021C151.749 76.7881 152.095 77.6143 152.095 78.6807V82.8027C152.101 83.7051 152.227 84.3877 152.473 84.8506V85H149.906ZM147.806 83.2334C148.181 83.2334 148.526 83.1514 148.843 82.9873C149.159 82.8174 149.394 82.5918 149.546 82.3105V80.6758H148.597C147.325 80.6758 146.648 81.1152 146.566 81.9941L146.558 82.1436C146.558 82.46 146.669 82.7207 146.892 82.9258C147.114 83.1309 147.419 83.2334 147.806 83.2334ZM156.384 75.4902L156.463 76.5889C157.143 75.7393 158.054 75.3145 159.196 75.3145C160.204 75.3145 160.954 75.6104 161.446 76.2021C161.938 76.7939 162.19 77.6787 162.202 78.8564V85H159.662V78.918C159.662 78.3789 159.545 77.9893 159.311 77.749C159.076 77.5029 158.687 77.3799 158.142 77.3799C157.427 77.3799 156.891 77.6846 156.533 78.2939V85H153.993V75.4902H156.384Z" fill="white"/>
<path d="M109.92 13.8667C107.467 12.6133 102.853 10.6667 96.6667 10.6667C89.7601 10.6667 84.6667 13.0933 82.0001 14.6133C79.3334 13.0933 74.2401 10.6667 67.3334 10.6667C61.1467 10.6667 56.5067 12.6133 54.0801 13.8667C52.7734 14.5067 52.6667 15.8667 52.6667 16.2133V48.4267C52.6701 48.8879 52.793 49.3404 53.0236 49.74C53.2541 50.1395 53.5843 50.4725 53.982 50.7062C54.3796 50.94 54.8311 51.0666 55.2924 51.0737C55.7536 51.0808 56.2088 50.9681 56.6134 50.7467C61.5467 48.16 65.6534 48 67.3334 48C73.0134 48 77.6267 50.2933 80.5601 52.2933C81.4934 52.9067 82.6401 52.8267 83.4134 52.2933C86.3467 50.2933 90.9601 48 96.6401 48C98.3201 48 102.427 48.16 107.36 50.7733C109.333 51.8133 111.307 50.2667 111.307 48.4533V16.2133C111.333 15.8667 111.227 14.5067 109.92 13.8667ZM106 44.32C101.947 42.8533 98.5868 42.6667 96.6667 42.6667C94.3467 42.6667 88.5868 42.9067 82.0001 46.88V20.7733C85.4134 18.8 89.6534 16 96.6667 16C98.5868 16 102.053 16.24 106 17.92V44.32Z" fill="white"/>
<path d="M101.733 35.2266C100.107 34.88 98.4266 34.6666 96.6666 34.6666C93.8666 34.6666 91.1999 35.1733 88.6933 36.0533C87.8933 36.3467 87.3333 37.0933 87.3333 37.9466C87.3333 39.3333 88.6933 40.2933 89.9999 39.8133C92.0799 39.0667 94.3199 38.64 96.6666 38.64C98.1333 38.64 99.5466 38.8 100.933 39.12C102.16 39.4133 103.333 38.4533 103.333 37.1733C103.333 36.24 102.667 35.44 101.733 35.2266ZM101.733 27.8933C100.107 27.52 98.3999 27.3333 96.6666 27.3333C93.8666 27.3333 91.1999 27.84 88.6933 28.72C87.8933 29.0133 87.3333 29.76 87.3333 30.6133V30.64C87.3333 32.0266 88.6933 32.9866 89.9999 32.5066C92.0799 31.76 94.3199 31.3333 96.6666 31.3333C98.1333 31.3333 99.5466 31.52 100.907 31.8133C102.16 32.1067 103.333 31.1466 103.333 29.8666C103.333 28.9066 102.667 28.1066 101.733 27.8933ZM88.7199 21.36C88.3188 21.4892 87.9687 21.7419 87.7197 22.0819C87.4707 22.4219 87.3354 22.8319 87.3333 23.2533V23.3066C87.3333 24.6933 88.6933 25.6533 89.9999 25.1733C92.0799 24.4266 94.3199 24 96.6666 24C98.1333 24 99.5466 24.1867 100.907 24.48C102.16 24.7733 103.333 23.8133 103.333 22.5333V22.5066C103.333 21.5466 102.667 20.7466 101.733 20.5333C100.069 20.1701 98.3704 19.9824 96.6666 19.9733C93.8666 20 91.1999 20.48 88.7199 21.36Z" fill="white"/>
</svg>
